<?xml version="1.0" encoding="utf-8"?>
<!-- Generator: Adobe Illustrator 19.0.0, SVG Export Plug-In . SVG Version: 6.00 Build 0)  -->
<svg version="1.1" id="Calque_1" xmlns="http://www.w3.org/2000/svg" xmlns:xlink="http://www.w3.org/1999/xlink" x="0px" y="0px"
	 viewBox="0 0 90 100" style="enable-background:new 0 0 90 100;" xml:space="preserve">
<style type="text/css">
	.st0{stroke:#000000;stroke-miterlimit:10;}
</style>
<path id="XMLID_26_" class="st0" d="M82.9,75.2l1.4-0.6c0,0-1.3,0.4-3.1,0.3c-1.9-0.1-3.5-1.4-3.5-1.4c-1.1-0.1-1.3-3.1-1.2-2.9
	c0.1,0.2,2.1,1.4,2.1,1.4c0,0.3,3,2.3,3.6,2.1c0.6-0.2,3.2-0.1,3.2-0.1s-1.1-0.6-2.9-0.4c-1.8,0.2-3.4-2.3-4-3
	c-0.6-0.7-0.9-4.1-0.9-4.1l0.3-1.7c0,0,0.6,1.4,0.7,1.9c0.2,0.5,3.1,3.3,3.1,3.3l0.6,0.1c-0.7-0.4-3.1-3.5-3.3-3.7
	c-0.3-0.2-0.4-2.1-0.6-2.4c-0.1-0.3,0.1-0.8,0.1-0.8c0.5,1.3,3.4,4.3,4.1,4.6c0.7,0.4,2.1,0.3,2.1,0.3c-0.1,0-0.1,0-0.2,0
	c-2.5-0.6-5.6-5.4-5.6-5.4l-0.1-1.1c-0.4-0.9,0.3-4,0.3-4l0.9-1.8c0,0,0.5,1,0.9,2c0.3,1,1,2.1,1,2.7c0,0.6-0.6,1.3-0.6,1.4
	c0.1,0,2.1-0.7,0.8-2.7c-1.1-1.7-1.7-5.9-1.8-7.1c0.1,1.1,0.6,4.1,1.7,5.1c1.3,1.2,1.2,2.4,1.2,2.4c0.4-0.8,0.2-1.3,0.2-1.3
	s-3.7-4.9-2.3-8c1.4-3-0.1-8.4-0.1-8.4l-0.8-7.2c2.6,1.6,2.8,3.3,2.9,3.8c0,0.5-1.3,3.8-1.3,3.8s0.6-0.7,1.4-2.5
	c0.8-1.9,0-3.1,0-3.1s-3.2-3.3-3.9-6.2c-0.7-2.9-1.8-4.8-1.8-4.8s-1.1-1.9-1.9-4.2c-0.7-2.2-2.5-3.8-2.5-3.8s-2-2.1-3.6-3.6
	c-1.6-1.5-1.6-1.7-2.9-2.3c-1.3-0.6-2.7-0.5-2.7-0.5l1.7-0.5c2.2-0.7,2.9-0.2,5.6,1c2.7,1.2,3.4,5.6,3.4,5.6c0-1.8-0.4-2.7-1.1-4.2
	c-0.7-1.5-3.7-2.8-4.4-3c-0.7-0.2-3.9,0.1-3.9,0.1l-1.9-1.1c0,0-0.1-0.2,0-1.8c0.1-1.6-0.3-2.8-1.7-3.2c-1.4-0.5-3.4,0-4.2-0.5
	C56.5,3.2,54,2.4,52.9,2c-1.1-0.5-2.6,1.5-4.5,2.3c-1.9,0.8-3.1-0.2-8.2-0.7c-5.1-0.5-8.7,3.5-9.3,3.3c-0.6-0.1-5.6,4.8-7.3,5.2
	c-1.7,0.5-3.3,3.2-4.3,3.8c-1,0.6-3.3,4.6-3.3,4.6l-1.4,3.6l-1.3,2.7c0,0-1,2-1.3,2.8c-0.3,0.8-1.2,3.4-2.9,3.8S7.2,32.6,6.9,32
	c-0.4-0.6,0.6-2.5,0.6-2.5l3.3-2.5c0,0-1-0.3-2.8,1.1c-1.8,1.4-1.8,1.7-2,4.4c-0.2,2.7,3.8,3.4,3.8,3.4c-1.2,1.2-2.1,4.7-2.3,6
	c-0.2,1.3,1.8,2.3,2.1,4.6c0.3,2.3,2.2,6,2.2,6l0.6,4.5l-0.6,1.4c0.2,0.2-2.3,0.8-2.3,0.8c-0.1,0.3-1.3-0.7-1.4-0.7
	c0.3,0.7,1.7,1.4,1.7,1.4s2.3-1.3,2.4-1c0,0.2-2.4,1.5-2.4,1.5C9.6,60.7,9,59.9,9,59.9c-0.3,0.3-1.4-1.2-1.4-1.2
	c0.3,1.3,0.8,1.4,1.6,2.1c0.8,0.7,3.6-2.1,3.8-1.9c0.2,0.2-1.6,2.1-1.5,2.3c0.1,0.2-4.2,3.5-4.2,3.5c0.2,0.3,2.7-1.2,2.7-1.2
	c0.2,0.3-2.8,2.3-2.8,2.3c0.6,0.6,3.3-1.9,3.3-1.9c0.3,0.4-1.9,2.2-1.9,2.2c1.4,1.4,4.2-5.6,4.8-4.1c0.5,1.5-0.2,5.7,0,6
	c0.1,0.3-0.9,1.6-0.9,1.6s-7,2.5-6.7,2.9c0.3,0.4,5.6-1.5,5.9-1.3c0.4,0.3-4.6,3.3-4.6,3.3l2.8-0.8l-0.5,0.9c0,0,2.9,0,3.1,0
	c0.2,0-0.2,0.9-0.2,0.9s-2,1.1-2.7,1.5c0.6-0.1,2.1,0,2.1,0L11,77.4l0.9,0.3c0,0-1.8,0.9-0.7,0.6c1.1-0.2,1.6,0.1,1.6,0.1l-1,0.7
	l2.1-0.1c0,0-3,1.2-2.9,1.4c0.1,0.2,3.8-0.9,4.2-0.8c0.5,0,2,0.5,2,0.5l-3.5,2.1l3.6-1.3l-3.4,3.2l2.7-1.2l-1.9,2.5
	c0,0,1.5-1,2.1-1.8c0.6-0.8,1.4-1,2.2-1.1c0.8-0.1,1.5-0.9,1.3-1.4s-0.4-1.9-0.5-2.4c-0.1-0.5-0.7-5.8-0.7-5.8s-0.5-1.5-1.1-1.5
	c-0.5,0-1.4-1-1.6-1.2c-0.1-0.2-1-2.6-0.7-3.6c0.3-1-2-6.7-2-6.9c0-0.1-1.9-5.8-1.1-7.6c0.4-0.8,2.7-0.5,2.7-0.5c0,0,1.7,1.6,1,2.4
	c-0.6,0.8,0,2.9,0,2.9s1.1,3.1,1.2,3.1c0.1,0,1.5-2.6,1.2-2.9c-0.3-0.2,1-3.3,1.2-3.5c0.2-0.2-0.4-3.5-0.4-3.5l0.8-4.4
	c0.3-1.4,0.9-2.8,1.9-4.1l1.7-0.9l-1-0.2l1.3-0.5l-1.1-0.4l1.6-0.5l-1-0.1l0.7-0.4l-0.8-0.4l1.2-0.6l-1,0.1l1.1-0.4h-1.2l0.5-0.6
	l-0.7-0.3l0.9-0.4l-0.8,0.1l0.7-0.5h-0.8l0.8-0.5h-0.8l0.8-0.3h-0.8l0.8-1l-0.7-0.3l0.5-0.6l-0.7,0.2l1-1l-0.6,0.1l0.9-0.6l-0.9,0
	l0.5-0.6c-0.8-1.8,2.4-5,3.3-7.1c1-2.2,6-1.4,6-1.4l1.7,1.4l-0.4-1.1l1,0.9L35.4,22l1.6,1.7l-0.4-1.7l1.2,1.7l0.1-1.7l0.9,1.7
	l0.1-1.8c0,0,1,1.8,1,1.9c0-0.1,0-1.7,0-1.9c0.1,0.2,1.3,1.8,1.3,1.8l0.1-2.1l1.1,1.9l0-1.7l1.1,1.7l0.6-2.3l0.5,2.2l0.3-2.1
	c0,0,1.1,1.9,1.1,1.8c0-0.1,0.1-2.2,0.1-2.2l0.8,2.5l0.3-2.3l0.6,2.4l0.2-1.9l0.8,1.7c0,0,0.1-0.9,0.1-1c0,0.1,0.9,0.9,0.9,0.9
	l0.3-1.4l1.1,1.4l-0.2-1.7l1.2,1.6l0.3-1l0.9,1.8l0.1-1.8l0.8,1.7l0.2-1.6l0.3,1.2l0.3-1.4l0.4,1.2l1.2-0.7c0,0,3.6,1.6,6.8,2.6
	c3.2,1,4.9,5,4.9,5l-0.2,0.3l-0.4,0.3l0.4,1.6l-0.5,0l0.2,1.3h-0.5l0.7,1.1h-0.6l0.3,0.5l-0.7-0.3l0.9,1.1l-0.9-0.2l0.7,1.1L67,36.6
	l1,1.5l-1-0.3l0.8,0.9l-1-0.3c0.1,0.1,3.9,4.6,5.1,6.6c1.3,2.1-0.3,11-0.2,12.4c0,1.4,1.7,2,2.4,1.8c0.7-0.2,0.9-3.3,0.9-3.3
	c1.6-0.5,2.8-0.6,3.6-0.5c-0.6-0.1-1.8-0.4-3.2-0.9c1.3-0.1,2.4-0.1,3.3,0L75.4,54c0,0,0.6-0.2,1-0.4c0.3-0.2,1.8,0.3,2,0.3l-3-1.5
	l3.2,1.1c-0.4-0.1-3.4-1.5-3-2.7c0.5-1.3,1.7-0.9,2.6-0.2c0.9,0.6,1,3.3,0.7,5.3c-0.3,2-1.6,8.3-2.4,10.7c-0.7,2.4-2.7,3.3-4.2,4.3
	c-1.5,1-1.4,7.5-2.1,9.7c-0.7,2.3-3,4.6-3,4.6s-1.2,5.8-0.2,6.9c1,1.1,1,3.5,1,3.5s0.8-2.5-0.3-3.8c-1.2-1.3-0.2-3.1-0.2-3.1
	s0.1-0.2,0.9,1.2c0.8,1.4,0.9,1.7,1.2,3.2c0.3,1.4-0.2,1.3-0.5,2.2s0.4,1.6,0.4,1.6s-0.4-0.6,0.1-1.4c0.5-0.8,0.4-1.8,0.6-2.4
	c0.2-0.6-1-3.4-1.6-4.4c-0.6-1.1-0.1-1.9-0.1-1.9s0.3-0.7,0.2,0.4s0.7,1.8,1.8,2.9c1,1,0.2,4.9,0.1,5.4c0.1-0.2,0.3-1,0.6-1.8
	c0.3-0.9,0.2-1.6,0.2-2.8c0-1.2-1.2-1.8-1.7-2.4c-0.5-0.6-0.2-2.6-0.2-2.6s0.4,0.7,0.5,1.8c0.1,1.1,1.4,1.5,2.4,2.3
	c1,0.8,0.1,3.8,0.1,3.8s0.2-0.2,0.5-0.9c0.2-0.7,0.2-1.8-0.1-3c-0.3-1.2-1.3-0.3-2-1.9c-0.7-1.6-0.3-2.6-0.3-2.6s0.1-0.2,0.3,0.6
	c0.2,0.8,1.2,1.9,2.5,3.2c1.3,1.2,1.5,2.4,1.5,2.4s0.2-0.9,0.1-1.2c-0.1-0.3-0.3-0.9-1.2-1.5c-1-0.5-1.9-2.6-2.2-3
	c-0.2-0.2-0.3-1.2-0.3-2.1c0-0.2,0.3-0.3,0.4-0.1c0.2,0.4,0.3,1,0.5,1.6c0.5,1.7,2.2,3,2.2,3l2.5,1.1c-0.1-0.1-1.3-0.7-2-1.3
	c-0.7-0.6-3-5.7-3.1-5.9c0.1,0.1,1.3,1.3,2.1,1.2c0.8-0.1,2.5,1.3,2.5,1.3s-1.1-1.8-2-1.7c-1,0.1-2-0.9-2-0.9l2.9,0.1
	c0,0-0.8-0.2-1.8-0.5c-1-0.3-1-3.9-1-3.9s0.7,0.9,1.7,2c1,1.1,2.5,2.7,4,2.9c1.3,0.2,2.5-0.3,2.9-0.5c-0.1,0-0.7,0-2.4-0.2
	c-2.5-0.4-2.7-1.5-3.7-2.2c-0.9-0.7-2.2-4.3-2.2-4.3c0.4,1.5,2.1,2.9,2.1,2.9c0.9,2.1,4,2.9,4.6,3.2c0.6,0.3,3.4,0.1,3.4,0.1l-2.1-1
	c0.8,0.3,2.9,0.6,2.9,0.6L82,80.5l1.1-0.3c-2.9-0.9-6.8-4.3-6.8-4.3c-1-0.8-1.7-3-1.8-3.1c0.2,0.4,1.7,1.6,1.7,1.6
	c2.2,2.7,5.8,2.1,5.8,2.1c-4.1-0.4-5.2-2.5-5.3-2.6C78.5,75.8,82.9,75.2,82.9,75.2z M61.5,8.2c-0.3,1-1.4,1.4-1.4,1.4S59.8,9,59,8.1
	c-0.8-0.9-1.1-2.4-1.1-2.4s3.6,0,3.8,0.3C61.9,6.2,61.8,7.2,61.5,8.2z"/>
<path id="XMLID_7_" class="st0" d="M20.2,81.1"/>
<path id="XMLID_8_" class="st0" d="M67.2,85.3l-7.6,6.3c-3.5,2.5-6.9,4.7-10.2,5.9c-2.6,1-5.2,1-7.7,0c-3.4-1.5-6.6-3.2-9.6-5.2
	l-9.9-8l-2-3.1l-1.9-9.6l-0.9-11.6l1.2-2.9l1.6,6.9l1.2,9.9c0,0,8.7,10.9,11,11.7s13.1,5.7,13.1,5.7L58.4,86l10.9-12.8l1.1-5.1
	l1.2-10.8l1.9,1.8l-1.7,12.4l-1.6,9.1C70.3,80.7,68.2,84.5,67.2,85.3z"/>
<path id="XMLID_11_" class="st0" d="M45.7,71c0,0,1.2-0.6,1.7-0.6c2,0.2,4,0.5,5.9,1.1c1.1,0.4,1.9,1,2.6,1.7l2.3-0.5l-7.3-5.3
	L47,66.2c-1,0.5-2.2,0.5-3.7,0c0,0-1.7,4.9,0.6,4.3C44.3,70.4,45.7,71,45.7,71z"/>
<path id="XMLID_12_" class="st0" d="M43.3,66.2L39,67.9l-4.9,4.7l1.8,0.6c1.2-0.8,2.4-1.5,3.6-1.8c1.4-0.5,2.8-0.8,4.3-1"/>
<g id="XMLID_1_">
</g>
<g id="XMLID_2_">
</g>
<g id="XMLID_3_">
</g>
<g id="XMLID_4_">
</g>
<g id="XMLID_5_">
</g>
<g id="XMLID_6_">
</g>
<g id="XMLID_9_">
</g>
<g id="XMLID_10_">
</g>
<g id="XMLID_13_">
</g>
<g id="XMLID_14_">
</g>
<g id="XMLID_15_">
</g>
<g id="XMLID_16_">
</g>
<g id="XMLID_17_">
</g>
<g id="XMLID_18_">
</g>
<g id="XMLID_19_">
</g>
</svg>
